<svg width="600" height="400" viewBox="0 0 600 400" fill="none" xmlns="http://www.w3.org/2000/svg">
<g clip-path="url(#clip0_1_3)">
<rect width="600" height="400" fill="white"/>
<rect width="600" height="400" fill="#201F1F"/>
<path d="M109.896 241V149.48H116.04V241H109.896ZM148.235 241V157.416H151.051L205.579 220.136C207.542 222.355 209.334 224.573 210.955 226.792C212.662 228.925 213.558 230.035 213.643 230.12C213.472 228.072 213.387 224.061 213.387 218.088V157.928H219.275V241.512H216.459L160.907 177.768L153.867 169.192C154.038 170.899 154.123 174.909 154.123 181.224V241H148.235ZM342.235 241V157.928H348.123V241H342.235ZM378.86 241V157.416H381.676L436.204 220.136C438.167 222.355 439.959 224.573 441.58 226.792C443.287 228.925 444.183 230.035 444.268 230.12C444.097 228.072 444.012 224.061 444.012 218.088V157.928H449.9V241.512H447.084L391.532 177.768L384.492 169.192C384.663 170.899 384.748 174.909 384.748 181.224V241H378.86ZM480.61 241V157.928H519.394V163.048H486.498V193.256H516.194V198.248H486.498V235.624H520.674V241H480.61Z" fill="white"/>
<path d="M358.16 289.096L353.216 301H350.768L365.216 266.44H366.56L381.056 301H378.464L373.52 289.096H358.16ZM365.744 270.28C365.712 270.312 365.648 270.504 365.552 270.856C365.104 272.232 364.672 273.4 364.256 274.36L358.976 287.128H372.704L367.424 274.408C366.304 271.976 365.744 270.6 365.744 270.28Z" fill="#730E0E"/>
<path d="M409.764 297.784C407.652 300.248 404.436 301.48 400.116 301.48C395.796 301.48 392.58 300.248 390.468 297.784C388.356 295.32 387.3 291.912 387.3 287.56V269.848H389.508V287.56C389.508 295.528 393.044 299.512 400.116 299.512C407.188 299.512 410.724 295.528 410.724 287.56V269.848H412.932V287.56C412.932 291.912 411.876 295.32 409.764 297.784Z" fill="#730E0E"/>
<path d="M434.135 299.368C438.231 299.368 441.511 298.264 443.975 296.056C446.471 293.848 447.719 290.52 447.719 286.072C447.719 281.624 446.311 278.088 443.495 275.464C440.711 272.84 437.271 271.528 433.175 271.528C430.263 271.528 428.023 271.592 426.455 271.72V299.032C428.375 299.256 430.935 299.368 434.135 299.368ZM433.175 269.56C437.975 269.56 441.975 271.048 445.175 274.024C448.407 276.968 450.023 280.984 450.023 286.072C450.023 291.16 448.535 294.984 445.559 297.544C442.615 300.104 438.807 301.384 434.135 301.384C430.903 301.384 427.575 301.224 424.151 300.904V269.848C426.711 269.656 429.719 269.56 433.175 269.56Z" fill="#730E0E"/>
<path d="M459.635 301V269.848H461.843V301H459.635Z" fill="#730E0E"/>
<path d="M487.145 301.48C482.697 301.48 478.969 299.928 475.961 296.824C472.953 293.72 471.449 289.928 471.449 285.448C471.449 280.936 472.953 277.128 475.961 274.024C478.969 270.92 482.697 269.368 487.145 269.368C491.593 269.368 495.321 270.92 498.329 274.024C501.337 277.128 502.841 280.936 502.841 285.448C502.841 289.928 501.337 293.72 498.329 296.824C495.321 299.928 491.593 301.48 487.145 301.48ZM487.145 271.336C483.305 271.336 480.105 272.696 477.545 275.416C475.017 278.136 473.753 281.48 473.753 285.448C473.753 289.384 475.017 292.712 477.545 295.432C480.105 298.12 483.305 299.464 487.145 299.464C491.017 299.464 494.217 298.12 496.745 295.432C499.273 292.712 500.537 289.384 500.537 285.448C500.537 281.48 499.273 278.136 496.745 275.416C494.217 272.696 491.017 271.336 487.145 271.336Z" fill="#730E0E"/>
<path d="M245.252 268C243.264 268.001 240.955 268.793 238.635 266.281C236.426 263.768 235.32 260.837 235.319 257.486C235.319 254.973 235.649 252.544 236.311 250.198C236.973 247.685 237.691 245.339 238.463 243.161L238.463 242.407C239.346 240.396 240.451 237.341 241.776 236C242.107 235.162 242.437 235.537 242.768 234.364C243.209 233.024 245.837 231.168 246.5 231L245.252 232.856C244.038 235.202 242.879 237.882 241.776 240.898L239.792 256.48C240.455 257.987 241.505 258.741 242.94 258.74C244.928 258.74 247.358 258.153 250.229 256.979C253.1 255.973 255.971 254.8 258.842 253.459C261.714 252.118 264.143 250.944 266.131 249.938L266.131 249.687C266.683 249.687 267.235 249.603 267.787 249.435C268.45 249.1 268.891 248.43 269.112 247.425L268.946 246.671L270.271 246.922C270.934 246.419 271.596 245.916 272.259 245.413C272.921 244.91 273.639 244.575 274.412 244.407C274.854 243.737 276.013 242.313 277.89 240.134C279.767 237.788 281.865 235.359 284.183 232.845C286.502 230.164 288.6 227.818 290.476 225.807C292.353 223.796 293.513 222.623 293.954 222.288L295 220L296.438 218.517L296.438 216.004C296.658 213.491 295.884 211.565 294.117 210.225C292.349 208.718 290.03 207.462 287.158 206.457C284.286 205.453 281.193 204.449 277.88 203.444C274.677 202.44 271.584 201.101 268.602 199.426C265.73 197.584 263.354 195.239 261.476 192.392C259.708 189.544 258.824 185.775 258.822 181.084L257.994 181.838L257.663 181.084C257.662 177.566 258.986 173.796 261.635 169.775C264.395 165.753 267.873 161.815 272.069 157.96C276.265 153.938 280.626 150.252 285.153 146.9C289.791 143.38 294.042 140.447 297.907 138.1C301.882 135.586 302.902 135.506 305 134.5C306.878 134.835 307.954 134.995 309.5 136C311.157 136.837 313.188 136.736 313.5 139C313.467 138.758 314.79 139.729 314.743 139.658C314.577 139.405 314.743 140.5 314.743 140.5C314.5 140 315.075 142.338 314.743 141.5L315.243 142C315.796 142 314.308 141.83 315.743 142.5C317.29 143.002 314.476 142.163 316.243 143C318.011 143.837 316.418 143.163 317.743 144C318.535 144.5 316.867 145.494 317.089 146.164L317.589 146.664L318.089 146.664C318.089 146.664 318.589 147.664 319.015 148.164C319.126 150.342 319.345 149.664 319.345 150.164L319.345 150.588L319.345 151.164L319.345 152.164L319.345 152.817L319.345 154L319.345 154.731C318.904 156.071 319.345 158.28 319.782 159.704C320.014 160.461 317.718 163.199 317.5 163.5C316.286 165.176 313.98 169.484 313.98 170C313.672 170.484 311.5 175 310.839 176L310.839 174.787L311.334 169.761L312 164.5C312.331 161.652 314.449 160.183 315 157C315.551 153.817 313.318 153.509 313.98 151.164C313.096 149.153 312.046 147.311 310.831 145.636C309.726 143.961 308.345 143.124 306.688 143.124C304.7 143.125 301.94 144.047 298.406 145.891C294.872 147.567 291.008 149.914 286.812 152.93C282.726 155.78 278.861 159.048 275.218 162.734C271.574 166.421 268.649 170.191 266.441 174.045C264.233 177.899 264.788 185.482 265.12 189C264.678 188.497 262.909 183.931 262.799 183.093C262.688 182.256 262.633 181.418 262.632 180.58C262.632 179.743 262.632 178.905 262.632 178.067C262.742 177.23 262.852 176.476 262.962 175.805C262.19 177.481 261.804 179.408 261.804 181.586C261.806 185.606 262.911 188.706 265.12 190.883C267.33 193.06 270.202 194.735 273.736 195.907C277.271 197.078 281.026 198.166 285.002 199.17C288.978 200.007 292.734 201.011 296.268 202.183C299.803 203.355 302.675 205.113 304.884 207.458C307.094 209.635 308.199 212.734 308.2 216.755C308.201 218.933 307.87 220.943 307.208 222.786C306.545 224.462 305.938 226.221 305.387 228.064C304.172 228.735 303.399 229.656 303.068 230.829C302.737 232.002 300.662 232.492 300 234C299.117 234.335 297.935 233.989 296.5 236C295.175 237.843 295.663 238.167 295 238C294.558 238.335 293.371 237.108 293 240.5C292.558 241.003 291.721 240.662 291.5 241.5L290 242.392C288.786 244.905 286.871 245.486 284 248C281.129 250.514 278.277 253.321 274.412 255.5C270.658 257.679 266.774 259.824 262.799 261.5C258.934 263.344 256.923 265.275 253.5 266.281C250.077 267.287 247.351 267.999 245.252 268ZM309.018 179.813L310 176L310.5 176.5L309.018 179.813ZM299.087 213L299.418 209.972L298.921 208.967L298.762 210.225L299.087 213ZM306.379 222L306.379 220.023L305.384 217.761L305.219 219.017L305.219 220.023L306.379 222ZM303.232 224.798L303.5 223.5L304 221L304.39 219.269C303.286 220.945 303.11 222.157 303 224L303.232 224.798ZM303.399 228.316L305.055 225.551L305.055 225.3L303.232 227L302.736 228.065L303.399 228.316ZM298.762 232.841L301.578 231.333L301.578 227.5L299.921 231.333L299.087 231.333L298.762 232.59L298.762 232.841Z" fill="#730E0E"/>
<path d="M463.852 269.852L463.852 301L461.852 301L461.852 269.852L463.852 269.852Z" fill="white"/>
<path d="M381.483 289.046L350.334 289.046L350.334 287.046L381.483 287.046L381.483 289.046Z" fill="white"/>
</g>
<defs>
<clipPath id="clip0_1_3">
<rect width="600" height="400" fill="white"/>
</clipPath>
</defs>
</svg>
